<svg width="10" height="10" viewBox="0 0 10 10" version="1.1" xmlns="http://www.w3.org/2000/svg" xmlns:xlink="http://www.w3.org/1999/xlink">
<title>Canvas</title>
<desc>Created using Figma</desc>
<g id="Canvas" transform="translate(-20 -238)">
<g id="Canvas">
<g id="fb">
<g id="Group">
<g id="Vector">
<g id="Vector">
<use xlink:href="#path0_fill" transform="translate(20 238)" fill="#997FBC"/>
</g>
</g>
</g>
</g>
</g>
</g>
<defs>
<path id="path0_fill" d="M 9.44774 -3.13689e-19L 0.551934 -3.13689e-19C 0.247316 -3.13689e-19 0 0.246822 0 0.551934L 0 9.44774C 0 9.75284 0.247316 10 0.551934 10L 5.34118 10L 5.34118 6.12742L 4.03806 6.12742L 4.03806 4.618L 5.34118 4.618L 5.34118 3.5049C 5.34118 2.2135 6.12972 1.50991 7.282 1.50991C 7.83442 1.50991 8.30814 1.55124 8.44628 1.56919L 8.44628 2.91906L 7.64704 2.91938C 7.02052 2.91938 6.89966 3.21724 6.89966 3.65408L 6.89966 4.6175L 8.39442 4.6175L 8.19898 6.12676L 6.8995 6.12676L 6.8995 9.9995L 9.44758 9.9995C 9.75252 9.9995 10 9.75202 10 9.44774L 10 0.551604C 9.99984 0.246822 9.75268 -3.13689e-19 9.44774 -3.13689e-19Z"/>
</defs>
</svg>
