<svg width="11" height="10" viewBox="0 0 11 10" version="1.1" xmlns="http://www.w3.org/2000/svg" xmlns:xlink="http://www.w3.org/1999/xlink">
<title>Group</title>
<desc>Created using Figma</desc>
<g id="Canvas" transform="translate(-36 -238)">
<g id="Group">
<g id="Vector">
<use xlink:href="#path0_fill" transform="translate(36 238)" fill="#997FBC"/>
</g>
</g>
</g>
<defs>
<path id="path0_fill" d="M 10.6962 0.184615C 10.2603 0.473846 9.77709 0.683846 9.2629 0.797692C 8.85114 0.306154 8.26478 0 7.61586 0C 6.36958 0 5.35908 1.13077 5.35908 2.52462C 5.35908 2.72231 5.37901 2.91538 5.41751 3.1C 3.54224 2.99462 1.87939 1.98923 0.766467 0.461538C 0.571929 0.833846 0.461255 1.26769 0.461255 1.73077C 0.461255 2.60692 0.859955 3.38 1.46488 3.83231C 1.09505 3.81846 0.747219 3.70462 0.442695 3.51538C 0.442695 3.52615 0.442695 3.53615 0.442695 3.54692C 0.442695 4.77 1.22085 5.79077 2.25266 6.02308C 2.06362 6.08077 1.86427 6.11154 1.65804 6.11154C 1.51231 6.11154 1.37139 6.09538 1.23322 6.06615C 1.52056 7.06923 2.35371 7.79923 3.34083 7.82C 2.56887 8.49692 1.59549 8.90077 0.538245 8.90077C 0.35608 8.90077 0.176665 8.88846 -3.26504e-11 8.86538C 0.998813 9.58154 2.1846 10 3.45907 10C 7.60967 10 9.87951 6.15231 9.87951 2.81538C 9.87951 2.70615 9.87745 2.59692 9.87264 2.48846C 10.3146 2.13385 10.6975 1.68923 11 1.18308C 10.5951 1.38385 10.1607 1.52 9.70422 1.58077C 10.1703 1.26846 10.5277 0.773077 10.6962 0.184615Z"/>
</defs>
</svg>
