<?xml version="1.0" encoding="utf-8"?>
<!-- Generator: Adobe Illustrator 19.0.0, SVG Export Plug-In . SVG Version: 6.00 Build 0)  -->
<svg version="1.1" id="Warstwa_1" xmlns="http://www.w3.org/2000/svg" xmlns:xlink="http://www.w3.org/1999/xlink" x="0px" y="0px"
	 viewBox="-392 948.5 750.3 153.5" style="enable-background:new -392 948.5 750.3 153.5;" xml:space="preserve">
<style type="text/css">
	.st0{display:none;}
	.st1{display:inline;fill:#FFFFFF;}
	.st2{fill:#FFFFFF;}
</style>
<g id="Warstwa_2" class="st0">
	<rect x="-749" y="762.2" class="st1" width="1413" height="504"/>
</g>
<g id="Layer_1">
	<title>logo</title>
	<polygon class="st2" points="110.4,971.3 110.4,1049.3 83.4,1049.3 83.4,1078.3 102.9,1078.3 105.2,1078.3 140,1078.3 
		148.4,1065.9 148.4,1025 148.4,971.3 	"/>
	<polygon class="st2" points="-219.4,971.3 -259.6,971.3 -275.2,1003 -275.2,971.3 -315.2,971.3 -315.2,1078.3 -275.2,1078.3 
		-275.2,1046.9 -259.6,1078.3 -219.4,1078.3 -247.2,1024.8 	"/>
	<polygon class="st2" points="330.6,971.3 299.4,971.3 327.1,1024.8 299.4,1078.3 330.6,1078.3 358.3,1024.8 	"/>
	<polygon class="st2" points="-364.3,1078.3 -333,1078.3 -360.7,1024.8 -333,971.3 -364.3,971.3 -392,1024.8 	"/>
	<polygon class="st2" points="290.4,948.5 261.4,948.5 227.9,1102 256.9,1102 	"/>
	<polygon class="st2" points="240.9,1000.3 247.2,971.3 196,971.3 166.7,971.3 157.5,971.3 157.5,1078.3 166.7,1078.3 196,1078.3 
		223.8,1078.3 230.1,1049.3 195.5,1049.3 195.5,1040.3 232.3,1040.3 239.1,1009.3 195.5,1009.3 195.5,1000.3 	"/>
	<path class="st2" d="M-120.5,979"/>
	<path class="st2" d="M-131.2,971.3h-78.2l-6.7,13.1v80.8l6.6,13.1h78.2l7.2-12.6v-80.9L-131.2,971.3z M-162.1,1049.3h-16v-49h16
		V1049.3z"/>
	<path class="st2" d="M-30,971.3h-85.1v107H-30l6.9-12.6v-80.9L-30,971.3z M-61.2,1049.3h-16v-49h16V1049.3z"/>
	<polygon class="st2" points="70.1,971.3 68.7,971.3 38.7,971.3 38.7,1000.4 38.7,1027.6 38.7,1028 38.7,1049.3 23.7,1049.3 
		23.7,1028 23.7,1027.6 23.7,1000.4 23.7,971.3 -7.6,971.3 -8.2,971.3 -14.3,971.3 -14.3,984.3 -14.3,998.2 -14.3,1025 
		-14.3,1027.6 -14.3,1051.8 -14.3,1065.2 -8.2,1078.3 -6.8,1078.3 27.9,1078.3 30.2,1078.3 69.4,1078.3 70,1078.3 76.7,1065.6 
		76.7,1051.8 76.7,1027.6 76.7,1025 76.7,998.2 76.7,984.8 76.7,971.3 	"/>
</g>
</svg>
